PathFileType	4	(X/Y/Z)	pose_F01_0-78.trc
DataRate	CameraRate	NumFrames	NumMarkers	Units	OrigDataRate	OrigDataStartFrame	OrigNumFrames
30	30	8	21	m	30	29	78
Frame#	Time	CHip			RHip			RKnee			RAnkle			RBigToe			RSmallToe			RHeel			LHip			LKnee			LAnkle			LBigToe			LSmallToe			LHeel			Neck			Nose			RShoulder			RElbow			RWrist			LShoulder			LElbow			LWrist			
		X1	Y1	Z1	X2	Y2	Z2	X3	Y3	Z3	X4	Y4	Z4	X5	Y5	Z5	X6	Y6	Z6	X7	Y7	Z7	X8	Y8	Z8	X9	Y9	Z9	X10	Y10	Z10	X11	Y11	Z11	X12	Y12	Z12	X13	Y13	Z13	X14	Y14	Z14	X15	Y15	Z15	X16	Y16	Z16	X17	Y17	Z17	X18	Y18	Z18	X19	Y19	Z19	X20	Y20	Z20	X21	Y21	Z21	
29	0.9666666666666667	-0.2819305435022938	1.8322293474472378	-0.5156165550725227	-0.2875328004709368	1.830534596406595	-0.4563676322476707	-0.2951878590313658	1.7144902214236806	-0.39689738515645434	-0.31666677909634944	1.6018179187196984	-0.3218604166750076	-0.2997011746060793	1.5649333465061719	-0.34162751871329256	-0.3061355301078409	1.566767086167742	-0.3056299431493464	-0.32207054671281465	1.593344638523662	-0.3151165845553296	-0.2743417955766758	1.832329228096872	-0.5711793402636458	-0.28043475735170703	1.7109258639103864	-0.5472410722350589	-0.2825325461375115	1.5933822461895644	-0.543033288567772	-0.2534640630895077	1.5648552761417376	-0.6060537957960339	-0.25857478171342146	1.57130504756821	-0.6222620820088527	-0.2905888032195633	1.5735375226601316	-0.5232910846183826	-0.27614143518830686	1.9830478117247046	-0.5446173388648431	-0.24859080901132494	2.0461067954074403	-0.6141178737628397	-0.27889021615258675	1.9807891452357484	-0.468470036142464	-0.27606573852285693	1.897481394357643	-0.43800667615870137	-0.270690070193542	1.8320002956018668	-0.44779728638708965	-0.2645178046221034	1.984205124625826	-0.6313897984254836	-0.26775383632639516	1.9055307425689703	-0.6406924739669866	-0.25834582740984297	1.8379880577657135	-0.6307651736231715
30	1.0	-0.2798191012978482	1.8302120630395977	-0.5000922658026081	-0.29422793177663464	1.8272543422638114	-0.43529386172540874	-0.301680786803635	1.7092663778861652	-0.3843016163217852	-0.318138517745702	1.587599356729472	-0.31438762225501365	-0.30169625066234	1.5597539905683793	-0.33882699673152455	-0.3080363463051563	1.5587142539129475	-0.30254524128946686	-0.3318599351169091	1.5809308050826394	-0.3032714848508409	-0.27343967744624254	1.8319292465552326	-0.5592464105495867	-0.2835097898523634	1.7078637989468821	-0.5391205391414204	-0.28214160566238955	1.5905043891348372	-0.5435112847484945	-0.2544517134190975	1.5646795555831159	-0.6092281112816514	-0.2580098263323043	1.568045584797028	-0.6228497796032908	-0.29221862445169206	1.5708884289533678	-0.521420000130344	-0.27415243619207313	1.9811281975220283	-0.5292940213695104	-0.24705651545445748	2.0417556778703485	-0.5983924115486443	-0.2843694670721693	1.9786563054555373	-0.4445959052842575	-0.2816355133028803	1.8956590050556	-0.42246105576434356	-0.26215060743575785	1.8299968772671844	-0.44399757242635707	-0.2690631971823531	1.9835699221996455	-0.6101598304399057	-0.2651231264898371	1.9031056933414934	-0.6225329957981083	-0.2637662414724652	1.8325533422121303	-0.6116838122517798
31	1.0333333333333334	-0.28982984323245115	1.828363201765789	-0.48008166142932945	-0.2951186561440084	1.8258702965151723	-0.42067531195634095	-0.3067949518502921	1.7125493794761208	-0.37457956580735374	-0.3209130396885888	1.5851432288035572	-0.31510389701579744	-0.29783963338343933	1.558885332646202	-0.3475560343534011	-0.29953509867950395	1.5588995753087265	-0.31218183687787177	-0.3307889259777757	1.5807487486012208	-0.3041606715616042	-0.27380300826380843	1.8301399973819525	-0.5414666534836445	-0.28588379868460706	1.7099995595112785	-0.5280481893547575	-0.28237121970103046	1.5920049513750152	-0.5432395971987747	-0.2535046258166862	1.5654651255788066	-0.6056530702636749	-0.2585052323081772	1.571058645268626	-0.6222145637008699	-0.2925457112698764	1.5728080691273514	-0.5212296012598315	-0.2831154561995272	1.9790796042997922	-0.5062178840579308	-0.25464782389129537	2.0341549694297907	-0.5679962919279687	-0.2851202492490292	1.9768418499692872	-0.42998415074573093	-0.28295498480413706	1.896199073766421	-0.40266122859564984	-0.27138452042772154	1.8314844190513173	-0.4245794895449699	-0.27162234661018925	1.9804711121317593	-0.5905982372886484	-0.2719399007293488	1.901974698908192	-0.598578317716255	-0.26446635919203676	1.8342589125911117	-0.5858838560606024
32	1.0666666666666667	-0.2972022798951965	1.8259182446136017	-0.4500916356162191	-0.30474141819997014	1.8218224327286927	-0.391434239510592	-0.3131225143892456	1.7048828473173734	-0.3523996076180888	-0.31977054945503286	1.5850073718814068	-0.31183376483652864	-0.2967645549998687	1.55660336453184	-0.3438973341615272	-0.30290540973752833	1.5563009381406114	-0.30801397646005063	-0.3318182427831115	1.5792015375006758	-0.3076695248536354	-0.28574342923763657	1.827615122103918	-0.5157513928878755	-0.28903893603649367	1.7104904415708022	-0.5116257189673676	-0.282423314615519	1.591912815124245	-0.5431390545058259	-0.2541919444605796	1.5710040157012424	-0.6057239266410497	-0.25997469941178275	1.5756098788482307	-0.61714817712325	-0.2929167751921487	1.5718026806465935	-0.5209566249345094	-0.2951063534777246	1.9771118979634295	-0.47608775290203453	-0.26675653480176914	2.0222959639914446	-0.5342090209260786	-0.2963813406097741	1.9762527451374785	-0.40018799579551984	-0.29437030903446976	1.8921497705436006	-0.3718694665130289	-0.2848488327950027	1.8211227165273587	-0.40412116148053767	-0.2843522849012202	1.979464490567063	-0.5605376598614669	-0.2870474648568848	1.899766958198014	-0.5656690981496496	-0.28160813928819306	1.8327137374589704	-0.5592938767360474
33	1.1	-0.29996372294079343	1.8228163379318518	-0.4331281012404974	-0.30593410538302135	1.8197666152658738	-0.3714940332593452	-0.3149412906812158	1.7047317441813672	-0.33636000711240943	-0.32006999255979107	1.5869454374524539	-0.3116914530674838	-0.29690963730204517	1.5576780205956038	-0.34365331984787584	-0.3002566805569031	1.556535772510527	-0.30605902274566565	-0.3324505918266276	1.5779066090694398	-0.30657545202012304	-0.29260615289789177	1.8252320000449633	-0.4862223735101743	-0.28812301279337843	1.7112399452400036	-0.5081285128291596	-0.2835384236853577	1.593412613879118	-0.5372593984469268	-0.2552726094862645	1.5740529347319925	-0.6002780725865919	-0.25851445598569933	1.5842868144055755	-0.615354091656627	-0.2919172312154616	1.5752215173391593	-0.5175921345428262	-0.29488668979697086	1.9765449844360068	-0.45907964795946266	-0.2679738802084322	2.0190769817858625	-0.5199104148774865	-0.3042316779390415	1.9744224912029285	-0.3774229835237758	-0.29772981857528297	1.8917257186486516	-0.35875946836208256	-0.27590303455166076	1.8229110514565319	-0.40089307898758664	-0.2905524961443198	1.9787894338498129	-0.5371302667009048	-1.342702038141799	1.8370955221319742	0.55378388415905	-0.28440731112829243	1.8353192306660313	-0.5416032226047521
34	1.1333333333333333	-0.3045644013599841	1.822406621238062	-0.41470257063560534	-0.31339550897838847	1.8197503056505433	-0.35408553849294505	-0.3176250214626725	1.6992970807655081	-0.332614652032519	-0.31950209875649954	1.582872576274344	-0.3118880135667796	-0.29698683055019776	1.5579323794258464	-0.34362836419494	-0.3033506399320634	1.5566841360912365	-0.3072974407102633	-0.33209261950610675	1.5780844931665439	-0.30716340899933864	-0.2926994262066874	1.8266478259240706	-0.47746678813833615	-0.289155823549318	1.712655555144211	-0.5026446192134132	-0.28335672118115734	1.5954376916942354	-0.5285331395403327	-0.25431920508183575	1.576747880144635	-0.58412139986174	-0.2584208881936612	1.5855734044399423	-0.598131371610249	-0.29120707197979445	1.5812289447193562	-0.5055726515280796	-0.30048950520522605	1.9747451734225372	-0.4435976891649831	-0.26787449854232787	2.017367806428567	-0.5024360182906485	-0.30466773335726893	1.9721068407460989	-0.3629780674184696	-0.3016710345601983	1.8922438170813585	-0.34043104903191856	-0.28075250268019664	1.8303078096819325	-0.3834395788063128	-0.29361743717679356	1.978541800645476	-0.5293559147661612	-0.295466401390271	1.901388335669157	-0.5314111663070986	-0.2872064829683918	1.837924723873092	-0.5239125684734569
35	1.1666666666666667	-0.3107355165953563	1.8278931818464594	-0.39859294174433013	-0.32230759134751813	1.824891566463793	-0.339135317747463	-0.32441994802800467	1.7034861627460491	-0.3207516136067138	-0.32137872087402397	1.5834523172240709	-0.30967489047336966	-0.29874418717211293	1.557285994130349	-0.3414938756386316	-0.2999509267936532	1.5546826468602402	-0.3062898788054782	-0.3300582126560287	1.5798093488752942	-0.30957897297901993	-0.30445503904498483	1.831104624332626	-0.45992402900122364	-0.3006958039145328	1.7160331371633253	-0.4729653014820829	-0.31983192900237145	1.601741478974606	-0.46819519408682736	-0.2925699171219746	1.5728238267809567	-0.5126284303150915	-0.2975332890519512	1.5850456848372922	-0.5311713816105776	-0.3234075125506941	1.5958523672922682	-0.45948868938384824	-0.30409858158333214	1.9767241620577163	-0.4311624540740535	-0.2758651958574817	2.0148152414313127	-0.48552918874929535	-0.3061117462029973	1.974534846953868	-0.3526480439888715	-0.3031869825881612	1.8946376662311915	-0.33001813001180536	-0.28990639520081796	1.8289154895480886	-0.372304747880049	-0.2954500719351178	1.9794250170089203	-0.5187328329870577	-0.2992469868188509	1.8999349290857992	-0.5182819894684252	-0.2967437094596136	1.8351272434373116	-0.5044260842173222
36	1.2	-0.3134197513674307	1.8301646088121524	-0.3914028547079633	-0.3246463606713063	1.8262294858545436	-0.33195567073041077	-0.3234037931087027	1.7073991315471888	-0.3178431502149067	-0.32112405778454983	1.5842984482341018	-0.310079162005533	-0.29872728490666234	1.556767373617573	-0.3415338050486353	-0.3048675089774535	1.554335380388613	-0.3055066400419464	-0.3318955547422815	1.580041784048855	-0.30745864209397955	-0.30521039234407193	1.83227732802267	-0.45465470089565657	-0.31049423871396126	1.7179706367656464	-0.45357424848969674	-0.31889505266326634	1.6006922457590917	-0.45545385454483533	-0.29178053301480517	1.5758812141718102	-0.4954478827867493	-0.29720553238466424	1.5820179270824302	-0.5126626719322116	-0.32507070394360854	1.593939784689607	-0.43943674463536375	-0.302033396619619	1.9754618088276255	-0.42470726314545476	-0.27345888643957833	2.0074129850646028	-0.4839101252385585	-0.30389877898705625	1.9718491138971297	-0.34559882088723265	-0.30506244360509277	1.8919661900255342	-0.32726073553600765	-0.2960639453950851	1.8237822274822493	-0.36491031025165266	-0.2935080333666221	1.9781871668325584	-0.5123608374648357	-0.29770089495740487	1.9047205242911147	-0.5156174230826327	-0.2948332784389758	1.8387157927314686	-0.4929358327280099
